<?xml version="1.0" standalone="no"?>
<!DOCTYPE svg PUBLIC "-//W3C//DTD SVG 20010904//EN"
 "http://www.w3.org/TR/2001/REC-SVG-20010904/DTD/svg10.dtd">
<svg version="1.0" xmlns="http://www.w3.org/2000/svg"
  width="624.000000pt" height="640.000000pt" viewBox="0 0 624.000000 640.000000"
 preserveAspectRatio="xMidYMid meet">
<metadata>
Created by potrace 1.15, written by Peter Selinger 2001-2017
</metadata>
<g transform="translate(0.000000,640.000000) scale(0.100000,-0.100000)"
fill="#000000" stroke="none">
<path d="M2910 6310 c-468 -64 -875 -306 -1155 -685 -105 -142 -246 -401 -303
-556 -44 -121 -102 -469 -102 -617 0 -141 -19 -288 -49 -377 -70 -208 -242
-409 -596 -695 -375 -304 -586 -523 -672 -699 -36 -74 -42 -163 -14 -208 33
-53 73 -68 177 -67 84 1 94 3 135 31 76 52 264 161 368 213 87 43 262 120 274
120 3 0 2 -60 -1 -132 -8 -220 36 -488 119 -713 60 -166 207 -432 302 -549 23
-28 24 -29 73 -17 75 18 77 20 59 72 -33 92 -85 309 -102 424 -23 164 -23 487
1 645 37 247 97 441 202 659 135 280 329 523 552 690 l50 38 59 -28 c63 -31
155 -49 217 -43 44 4 51 8 41 23 -3 6 -38 11 -80 11 -328 0 -587 333 -586 755
0 272 108 512 289 645 122 90 255 123 384 97 180 -36 326 -155 419 -339 36
-70 75 -203 83 -283 4 -33 9 -78 12 -100 5 -39 4 -38 -14 14 -36 97 -94 151
-166 151 -93 0 -165 -94 -174 -226 -9 -135 37 -237 124 -275 62 -28 109 -14
165 49 47 53 47 47 -2 -76 -16 -41 -29 -75 -29 -76 0 -3 245 6 249 10 2 2 -9
17 -23 35 -15 18 -38 55 -52 83 -22 46 -23 48 -3 23 46 -60 129 -75 190 -34
20 13 46 47 64 82 27 52 30 68 29 144 -1 101 -21 157 -78 211 -33 31 -43 35
-89 35 -57 0 -95 -22 -129 -73 -27 -41 -21 -18 11 46 92 183 277 303 510 333
194 25 409 -40 549 -166 272 -245 217 -657 -112 -840 -105 -58 -176 -76 -303
-78 -62 -1 -113 -6 -113 -11 0 -5 46 -6 109 -3 l110 6 88 -58 c486 -320 799
-847 879 -1481 13 -103 15 -180 11 -335 -6 -231 -27 -375 -83 -566 -53 -182
-55 -163 12 -182 31 -9 61 -14 66 -11 16 10 112 146 155 219 144 247 226 487
263 773 16 117 14 305 -4 377 -8 33 -14 61 -12 62 1 1 47 -16 101 -38 133 -54
280 -134 450 -248 l140 -94 90 -1 c105 -1 148 17 178 74 27 52 18 143 -22 225
-82 165 -301 396 -626 658 -299 241 -411 349 -510 490 -84 121 -85 123 -220
717 -97 425 -128 537 -192 700 -101 258 -215 441 -358 579 -239 230 -517 373
-852 442 -112 23 -424 34 -533 19z m520 -63 c58 -14 134 -36 170 -50 411 -155
705 -493 752 -863 13 -105 0 -192 -34 -226 -25 -25 -61 -21 -210 27 -246 80
-470 79 -723 -3 -87 -28 -131 -36 -213 -40 l-103 -4 -97 94 c-107 104 -165
147 -248 185 -167 76 -359 72 -525 -13 -54 -27 -176 -123 -234 -183 -21 -22
-45 -41 -52 -41 -30 0 -36 177 -9 293 48 205 188 419 371 566 142 114 316 201
493 246 149 39 203 44 387 40 137 -3 191 -8 275 -28z"/>
<path d="M2950 516 c-5 -16 -10 -31 -10 -34 0 -2 92 -3 205 -1 l204 4 -6 25
c-3 14 -8 27 -10 30 -3 3 -87 5 -189 5 l-184 1 -10 -30z"/>
</g>
</svg>
